<svg width="1800" height="900" xmlns="http://www.w3.org/2000/svg">
 <style type="text/css">
  <![CDATA[
		line
		{
			stroke: rgba(255,255,255,0.125);
			stroke-width: 0.85px;
		}
		
		polygon
		{
			fill: rgba(255,255,255,0.075);
		}
    ]]>
 </style>

 <!-- Middle line -->
 <!-- Lines -->
 <!-- Fills -->
 <g>
  <title>background</title>
  <rect fill="none" id="canvas_background" height="602" width="802" y="-1" x="-1"/>
 </g>
 <g>
  <title>Layer 1</title>
  <line id="svg_7" y2="600" x2="600" y1="900" x1="300"/>
  <line id="svg_8" y2="600" x2="700" y1="900" x1="400"/>
  <line id="svg_9" y2="600" x2="800" y1="900" x1="500"/>
  <line id="svg_10" y2="600" x2="900" y1="900" x1="600"/>
  <line id="svg_11" y2="700" x2="900" y1="900" x1="700"/>
  <line id="svg_12" y2="800" x2="900" y1="900" x1="800"/>
  <line id="svg_18" y2="600" x2="1200" y1="900" x1="1500"/>
  <line id="svg_19" y2="600" x2="1100" y1="900" x1="1400"/>
  <line id="svg_20" y2="600" x2="1000" y1="900" x1="1300"/>
  <line id="svg_21" y2="600" x2="900" y1="900" x1="1200"/>
  <line id="svg_22" y2="700" x2="900" y1="900" x1="1100"/>
  <line id="svg_23" y2="800" x2="900" y1="900" x1="1000"/>
  <polygon id="svg_24" points="299,900 599,600 649,650 699,600 749,650 799,600 849,650 899,600 899,900 899,600 949,650 999,600 1049,650 1099,600 1149,650 1199,600 1499,900 "/>
  <polygon id="svg_25" points="350,950 650,650 700,700 750,650 800,700 850,650 900,700 900,900 900,700 950,650 1000,700 1050,650 1100,700 1150,650 1450,950"/>
  <polygon id="svg_26" points="400,1001 700,701 750,751 800,701 850,751 900,701 900,901 900,701 950,751 1000,701 1050,751 1100,701 1300,901 "/>
  <polygon id="svg_27" points="450,1050 750,750 800,800 850,750 900,800 900,900 900,800 950,750 1000,800 1050,750 1350,1050"/>
  <polygon id="svg_28" points="500,1100 800,800 850,850 900,800 900,900 900,800 950,850 1000,800 1300,1100"/>
  <polygon id="svg_29" points="550,1150 850,850 900,900 950,850 1250,1150"/>
 </g>
</svg>