<?xml version="1.0" encoding="utf-8"?>
<svg viewBox="0 0 12000 1600" xmlns="http://www.w3.org/2000/svg">
  <g id="layer101" fill="#e84f26" stroke="none">
    <path d="M4614 1048 c-123 -82 -125 -258 -5 -343 39 -27 50 -30 120 -30 69 0 82 3 118 28 49 34 82 91 90 156 8 71 -31 152 -95 192 -39 25 -56 29 -113 29 -59 0 -73 -4 -115 -32z"/>
    <path d="M8205 1063 c-156 -82 -157 -295 -3 -374 46 -24 137 -25 181 -3 46 23 86 64 103 103 17 39 18 128 3 168 -14 38 -67 92 -108 109 -44 19 -138 17 -176 -3z"/>
  </g>
  <g id="layer102" fill="#f27d24" stroke="none" transform="matrix(1, 0, 0, 1, -0.145063, -1.184471)">
    <path d="M 5320 1405 C 5311 1394 5311 1306 5321 1003 C 5327 790 5337 605 5341 592 C 5354 558 5380 553 5402 579 C 5419 601 5420 628 5420 999 C 5420 1294 5417 1399 5408 1408 C 5391 1425 5335 1423 5320 1405 Z"/>
    <path d="M 8818 1243 C 8808 1241 8800 1232 8800 1223 C 8800 1210 8808 1208 8842 1213 C 8868 1217 8894 1213 8911 1205 C 8945 1187 8982 1112 8988 1050 C 8992 1004 8972 659 8965 652 C 8963 649 8947 653 8930 658 C 8893 672 8870 664 8870 639 C 8870 625 8882 617 8915 608 C 8940 601 8960 593 8960 589 C 8960 559 9032 537 9056 559 C 9061 564 9112 570 9170 572 C 9262 575 9283 579 9341 606 C 9415 641 9469 690 9502 753 C 9522 791 9525 812 9528 973 C 9533 1198 9533 1200 9475 1200 C 9443 1200 9428 1195 9421 1182 C 9416 1172 9414 1115 9417 1050 C 9420 987 9417 892 9411 840 C 9398 731 9371 680 9308 648 C 9264 625 9171 610 9118 618 L 9080 623 L 9080 684 C 9080 717 9085 807 9091 883 C 9103 1042 9093 1095 9040 1169 C 8992 1234 8900 1265 8818 1243 Z"/>
    <path d="M 9670 1225 C 9650 1201 9668 1191 9769 1170 C 9820 1159 9865 1148 9870 1145 C 9881 1138 9876 1126 9816 997 C 9791 943 9770 898 9770 896 C 9770 894 9751 850 9727 799 C 9636 603 9635 597 9682 570 C 9703 559 9714 558 9727 566 C 9742 576 9825 776 9917 1025 C 9931 1064 9946 1099 9950 1103 C 9961 1115 10027 1054 10054 1006 C 10101 925 10112 875 10111 725 C 10111 640 10115 581 10122 573 C 10135 557 10174 556 10201 570 C 10218 580 10220 592 10220 719 C 10220 874 10207 935 10158 1013 C 10126 1063 10053 1133 10008 1156 C 9992 1164 9980 1179 9980 1189 C 9980 1219 9956 1233 9927 1219 C 9907 1210 9886 1211 9830 1224 C 9739 1244 9686 1245 9670 1225 Z"/>
    <path d="M 1193 1200 C 1170 1191 1170 1188 1170 1017 C 1170 798 1160 757 1086 684 C 1050 647 1022 628 990 620 C 933 604 854 612 802 639 C 751 665 723 666 715 641 C 698 585 748 565 905 565 C 1049 565 1116 587 1191 657 C 1270 731 1283 774 1288 985 C 1292 1180 1289 1194 1240 1204 C 1226 1207 1205 1205 1193 1200 Z"/>
    <path d="M 1873 1200 C 1845 1189 1841 1164 1842 974 C 1843 830 1840 809 1821 765 C 1795 707 1770 677 1715 641 C 1660 605 1547 604 1482 638 C 1424 669 1395 665 1395 625 C 1395 584 1429 570 1544 563 C 1691 554 1792 585 1877 666 C 1949 734 1960 777 1960 1000 C 1960 1104 1957 1191 1953 1193 C 1933 1204 1893 1207 1873 1200 Z"/>
    <path d="M 2131 1199 L 2107 1190 L 2113 1062 C 2117 992 2123 859 2126 765 C 2130 672 2137 587 2142 578 C 2154 554 2186 556 2204 581 L 2219 603 L 2267 580 C 2305 562 2326 559 2373 563 C 2502 575 2596 635 2647 738 C 2674 794 2675 800 2678 985 C 2680 1097 2677 1181 2671 1190 C 2661 1205 2608 1209 2577 1197 C 2562 1191 2560 1173 2560 1013 C 2560 796 2547 738 2486 674 C 2423 609 2341 593 2263 631 L 2220 652 L 2220 913 C 2220 1057 2216 1180 2212 1186 C 2201 1203 2158 1209 2131 1199 Z"/>
    <path d="M 3105 1200 C 2954 1176 2830 1079 2814 973 C 2810 948 2813 853 2819 761 C 2829 613 2833 593 2851 578 C 2863 568 2885 560 2900 560 C 2951 560 2954 573 2936 754 C 2915 973 2912 954 2961 946 C 3018 937 3074 906 3104 867 C 3133 829 3147 776 3156 662 C 3164 572 3175 556 3228 562 L 3255 565 L 3255 675 C 3255 771 3252 791 3232 830 C 3219 854 3198 883 3187 893 C 3149 926 3056 968 2992 980 C 2921 994 2916 1006 2953 1061 C 2986 1110 3031 1136 3105 1150 C 3225 1173 3362 1137 3410 1071 C 3449 1015 3452 979 3433 778 C 3415 573 3417 560 3469 560 C 3525 560 3529 571 3547 762 C 3563 930 3563 943 3546 996 C 3501 1137 3299 1231 3105 1200 Z"/>
    <path d="M 3733 1199 C 3688 1182 3712 1156 3780 1145 C 3853 1135 3953 1100 3987 1074 C 4037 1036 4080 938 4087 847 C 4092 782 4090 766 4070 725 C 4029 640 3973 622 3795 640 C 3731 646 3677 650 3675 648 C 3668 642 3696 325 3704 312 C 3708 306 3727 300 3746 300 C 3793 300 3799 321 3797 462 L 3795 575 L 3930 580 C 4080 586 4133 602 4175 651 C 4208 691 4215 738 4201 832 C 4181 976 4104 1095 3997 1148 C 3916 1188 3775 1216 3733 1199 Z"/>
    <path d="M 7318 1199 C 7308 1194 7300 1183 7300 1175 C 7300 1159 7308 1156 7415 1135 C 7575 1102 7629 1050 7665 895 C 7689 793 7671 718 7610 667 C 7567 631 7526 626 7388 639 C 7322 646 7265 649 7262 646 C 7253 636 7280 327 7292 313 C 7305 297 7352 296 7368 312 C 7376 320 7380 366 7380 452 L 7380 580 L 7498 580 C 7624 580 7674 590 7726 623 C 7779 658 7794 699 7787 799 C 7776 970 7697 1097 7565 1155 C 7480 1192 7346 1216 7318 1199 Z"/>
    <path d="M 10610 1197 C 10590 1187 10583 1172 10571 1112 C 10564 1073 10554 1040 10550 1040 C 10545 1040 10528 1062 10511 1090 C 10464 1167 10424 1200 10379 1200 C 10349 1200 10337 1194 10324 1175 C 10294 1129 10309 1111 10395 1091 C 10451 1077 10492 1044 10521 988 C 10545 942 10547 783 10525 700 C 10505 623 10481 606 10407 615 C 10354 621 10349 619 10352 603 C 10356 580 10411 561 10478 561 C 10593 559 10627 611 10640 804 C 10644 870 10658 983 10670 1054 C 10692 1179 10692 1184 10674 1197 C 10652 1213 10642 1213 10610 1197 Z"/>
    <path d="M 10870 1202 C 10821 1185 10844 1154 10913 1145 C 10998 1133 11088 1101 11124 1070 C 11142 1054 11170 1012 11186 978 C 11211 923 11215 903 11215 823 C 11215 715 11202 689 11126 651 C 11078 627 11077 627 10943 639 C 10869 646 10806 650 10804 647 C 10801 645 10804 603 10810 554 C 10815 505 10820 445 10820 420 C 10820 395 10825 358 10831 338 C 10840 304 10844 300 10875 300 C 10894 300 10912 305 10915 311 C 10919 317 10922 358 10921 403 C 10921 448 10923 506 10926 532 L 10932 578 L 11063 582 C 11180 585 11201 588 11245 610 C 11314 645 11340 686 11340 764 C 11340 850 11319 926 11277 1002 C 11236 1076 11186 1124 11123 1152 C 11045 1186 10904 1215 10870 1202 Z"/>
    <path d="M 6587 1193 C 6583 1190 6580 1124 6580 1048 C 6580 892 6589 861 6641 834 C 6658 826 6675 821 6678 824 C 6685 831 6681 1180 6674 1192 C 6668 1202 6596 1203 6587 1193 Z"/>
    <path d="M 7015 1189 C 7011 1184 7009 1106 7009 1017 C 7010 832 6999 777 6947 708 C 6928 682 6893 654 6860 637 C 6812 612 6797 609 6740 613 C 6703 615 6648 628 6612 643 C 6557 665 6548 666 6535 653 C 6516 635 6516 630 6535 603 C 6567 557 6808 546 6913 586 C 6993 617 7048.463 666.732 7088 741 C 7088 741 7111.337 808.944 7115.109 844.397 C 7119.522 885.876 7126.074 992.732 7126.074 992.732 C 7125.074 1096.732 7117 1186 7114 1191 C 7107 1204 7023 1202 7015 1189 Z"/>
    <path d="M 5793 1174 C 5782 1146 5808 1137 5922 1128 C 5984 1124 6057 1112 6084 1103 C 6144 1084 6216 1020 6241 965 C 6264 915 6265 829 6244 767 C 6226 713 6163 645 6115 624 C 6065 603 5971 607 5895 632 C 5833 652 5828 652 5812 636 C 5772 596 5853 563 5995 561 C 6165 559 6295 630 6355 756 C 6411 874 6374 1001 6260 1082 C 6236 1100 6237 1100 6328 1098 C 6401 1096 6423 1098 6430 1110 C 6444 1132 6442 1157 6424 1174 C 6411 1188 6368 1190 6104 1190 C 5837 1190 5799 1188 5793 1174 Z"/>
    <path d="M 4922 935 C 4923 889 4920 875 4911 889 C 4905 898 4901 899 4899 891 C 4896 884 4861 874 4820 868 C 4779 861 4742 852 4738 847 C 4729 833 4740 807 4762 792 C 4789 772 4784 747 4750 732 C 4732 724 4720 711 4720 699 C 4720 678 4695 674 4670 690 C 4657 699 4657 700 4670 700 C 4681 700 4680 703 4666 711 C 4651 720 4650 724 4661 731 C 4672 738 4671 740 4658 740 C 4648 740 4640 747 4640 755 C 4640 763 4628 777 4614 786 C 4593 800 4587 801 4580 790 C 4573 779 4569 780 4555 793 C 4534 815 4529 814 4537 793 C 4576 681 4745 632 4847 703 C 4890 733 4925 784 4914 802 C 4910 808 4911 810 4918 806 C 4934 796 4945 885 4932 923 C 4925 942 4921 947 4922 935 Z"/>
    <path d="M 5560 745 C 5560 580 5560 580 5584 569 C 5614 555 5656 564 5664 586 C 5672 606 5653 803 5640 845 C 5631 871 5587 910 5566 910 C 5563 910 5560 836 5560 745 Z"/>
    <path d="M 8487 894 C 8475 881 8390 861 8348 860 C 8320 860 8310 855 8305 840 C 8297 816 8306 800 8326 800 C 8334 800 8341 797 8341 793 C 8348 755 8345 740 8334 740 C 8316 740 8280 709 8280 693 C 8280 676 8259 677 8224 695 C 8208 703 8200 710 8206 710 C 8212 710 8217 717 8217 725 C 8217 733 8213 740 8208 740 C 8204 740 8200 746 8200 753 C 8200 767 8169 800 8156 800 C 8152 800 8152 795 8156 788 C 8160 782 8159 780 8152 784 C 8147 787 8139 784 8136 778 C 8133 771 8133 775 8136 787 C 8140 805 8137 807 8120 803 C 8108 800 8102 794 8107 791 C 8111 788 8116 778 8118 770 C 8129 720 8217 670 8295 670 C 8382 670 8459 720 8489 796 C 8502 829 8500 907 8487 894 Z"/>
  </g>
</svg>